<svg height="100%" version="1.1" width="100%" xmlns="http://www.w3.org/2000/svg" preserveAspectRatio="xMidYMid meet" viewBox="0 0 600 442" xmlns:xlink="http://www.w3.org/1999/xlink"><desc>Created with Snap</desc><defs/><g id="root" contentwidth="243.7" contentheight="247.60000000000002">
          <rect class="background" height="2000%" width="2000%" y="-1000%" x="-1000%" style="" fill="#ffffff"/>
          <rect class="watermarklayer" height="100%" width="100%" y="0" x="0" style="" fill="none"/>
          <g class="content" id="content" transform="matrix(1,0,0,1,3.65,18.2)">
            <g class="icon">
            <svg height="149" version="1.1" width="59" xmlns="http://www.w3.org/2000/svg" x="215" y="79" preserveAspectRatio="none" transform="matrix(1,0,0,1,0,0)" class="none"><desc>Created with Snap</desc><defs/><svg xmlns="http://www.w3.org/2000/svg" viewBox="215 79 59 149"><path d="M273.954 95.682v37.821l-57.474 94.063c-.95-2.23-1.48-4.726-1.48-7.378V97.818c0-13.724 14.2-22.817 26.656-17.062l32.298 14.926Z" id="prefix-LSD-Fill-3" fill="#00E2EE"/></svg></svg><svg height="105" version="1.1" width="57" xmlns="http://www.w3.org/2000/svg" x="216" y="134" preserveAspectRatio="none" transform="matrix(1,0,0,1,0,0)" class="none"><desc>Created with Snap</desc><defs/><svg xmlns="http://www.w3.org/2000/svg" viewBox="216 134 57 105"><path d="M273.954 133.504v88.821l-32.298 14.926c-10.04 4.632-21.216-.39-25.176-9.686l57.474-94.061Z" id="prefix-gB_-Fill-5" fill="#00CEED"/></svg></svg><svg height="118" version="1.1" width="43" xmlns="http://www.w3.org/2000/svg" x="273" y="104" preserveAspectRatio="none" transform="matrix(1,0,0,1,0,0)" class="none"><desc>Created with Snap</desc><defs/><svg xmlns="http://www.w3.org/2000/svg" viewBox="274 104 43 118"><path id="prefix-gRK-Fill-7" fill="#06BBF1" d="m317.18 168.782-29.259 46.103-.725 1.073-13.243 6.366v-88.821l18.02-29.492 2.838 1.31z"/></svg></svg><svg height="63" version="1.1" width="48" xmlns="http://www.w3.org/2000/svg" x="294" y="105" preserveAspectRatio="none" transform="matrix(1,0,0,1,0,0)" class="none"><desc>Created with Snap</desc><defs/><svg xmlns="http://www.w3.org/2000/svg" viewBox="295 105 48 63"><path id="prefix-VV1-Fill-13" fill="#2693EA" d="m343.01 128.123-25.83 40.66-22.369-63.463 47.95 22.148z"/></svg></svg><svg height="68" version="1.1" width="36" xmlns="http://www.w3.org/2000/svg" x="316" y="127" preserveAspectRatio="none" transform="matrix(1,0,0,1,0,0)" class="none"><desc>Created with Snap</desc><defs/><svg xmlns="http://www.w3.org/2000/svg" viewBox="317 128 36 68"><path id="prefix-j9Q-Fill-15" fill="#4C69E4" d="m353.33 154.886-26.516 41.221-9.634-27.324 25.83-40.66z"/></svg></svg><svg height="43" version="1.1" width="37" xmlns="http://www.w3.org/2000/svg" x="325" y="154" preserveAspectRatio="none" transform="matrix(1,0,0,1,0,0)" class="none"><desc>Created with Snap</desc><defs/><svg xmlns="http://www.w3.org/2000/svg" viewBox="327 155 37 43"><path id="prefix-m-H-Fill-17" fill="#9561E8" d="m363.4 181.01-35.931 16.594-.235-.31-.42-1.186 26.515-41.222z"/></svg></svg><svg height="44" version="1.1" width="32" xmlns="http://www.w3.org/2000/svg" x="351" y="137" preserveAspectRatio="none" transform="matrix(1,0,0,1,0,0)" class="none"><desc>Created with Snap</desc><defs/><svg xmlns="http://www.w3.org/2000/svg" viewBox="353 138 32 44"><path d="m374.093 176.066-10.693 4.945-10.07-26.125 11.177-17.375 9.586 4.43c14.544 6.722 14.544 27.403 0 34.125" id="prefix-Z2_-Fill-21" fill="#E058EB"/></svg></svg></g>
            <g id="icon_name_and_slogan_gap">
            </g>
            <g class="name_and_slogan" id="name_and_slogan_id">
              <g class="name"><g id="nameDefaultGroup"><path d="M174.5 295.5 L174.5 289.5 L176.7 289.5 L176.7 272.2 L174.5 272.2 L174.5 266 L200.8 266 L200.8 295.5 L174.5 295.5 Z M192.9 272.2 L184.1 272.2 L184.1 289.5 L192.9 289.5 L192.9 272.2 Z M225.9 278.3 L216.2 280.9 L216.2 295.5 L209.4 295.5 L209.4 273.6 L216.2 273.6 L216.2 275.4 L225.9 272.8 L225.9 278.3 Z M257.6 290.6 L257.6 295.5 L233.9 295.5 L233.9 282.1 L249.4 282.1 L249.4 278.3 L240.9 278.3 L240.9 279.8 L234.2 279.8 L234.2 273.4 L256.1 273.4 L256.1 290.6 L257.6 290.6 Z M249.4 290.6 L249.4 287 L240.6 287 L240.6 290.6 L249.4 290.6 Z M288.2 273.5 L288.2 305.5 L268.1 305.5 L266.1 298.8 L273.1 298.8 L273.8 300.8 L281.4 300.8 L281.4 295.3 L266.1 295.3 L266.1 273.5 L288.2 273.5 Z M281.4 290.4 L281.4 278.6 L272.7 278.6 L272.7 290.4 L281.4 290.4 Z M296.5 295.5 L296.5 273.4 L319.5 273.4 L319.5 295.5 L296.5 295.5 Z M312.2 278.7 L303.4 278.7 L303.4 290.4 L312.2 290.4 L312.2 278.7 Z M341.6 295.5 L341.6 279 L334.1 279 L334.1 295.5 L327.2 295.5 L327.2 273.6 L348.4 273.6 L348.4 295.5 L341.6 295.5 Z M357.2 266.3 L386.6 266.3 L386.6 295.2 L357.2 295.2 L357.2 266.3 Z M379.2 272.2 L364.6 272.2 L364.6 289.1 L379.2 289.1 L379.2 272.2 Z M403.4 271.5 L403.4 278.3 L418.2 278.3 L418.2 295.6 L397.1 295.6 L395.7 288.2 L403.3 288.2 L403.8 290.2 L410.6 290.2 L410.6 283.7 L396.2 283.7 L396.2 266.1 L417.9 266.1 L417.9 273.8 L410.2 273.8 L410.2 271.5 L403.4 271.5 Z" style="" fill="#0b0560" transform="matrix(1,0,0,1,0,0)"/></g></g>
              <g class="slogan"><g id="sloganDefaultGroup"><path d="M255.9 317.3 L255.9 321.8 Q256.9 321 257.7 320.1 Q258.5 319.2 259.2 318.2 L259.9 318.9 Q258.4 321.3 255.9 323.1 L255.9 323.8 Q255.9 324.1 255.9 324.3 Q256 324.5 256.1 324.6 Q256.2 324.7 256.4 324.8 Q256.6 324.8 256.9 324.9 Q257.3 324.9 257.8 324.9 Q258.2 324.9 258.6 324.9 Q258.9 324.8 259.1 324.8 Q259.3 324.8 259.5 324.7 Q259.6 324.6 259.7 324.5 Q259.8 324.4 259.8 324.2 Q259.9 323.8 259.9 323.3 Q259.9 322.9 260 322.5 L261 322.9 Q261 323.4 260.9 323.9 Q260.9 324.4 260.8 324.9 Q260.6 325.4 260.2 325.6 Q259.8 325.9 258.9 325.9 Q258.3 325.9 257.7 325.9 Q257 325.9 256.5 325.9 Q256 325.9 255.7 325.8 Q255.4 325.7 255.2 325.5 Q255 325.3 254.9 325 Q254.8 324.6 254.8 324.1 L254.8 323.8 Q254.2 324.2 253.5 324.6 Q252.8 325 252.1 325.3 L251.5 324.4 Q253.3 323.5 254.8 322.5 L254.8 317.3 L253.8 317.3 Q253.6 318.7 253.2 319.9 Q252.9 321.1 252.3 322.1 Q251.8 323.2 251 324.2 Q250.3 325.2 249.3 326.2 L248.3 325.5 Q249.3 324.5 250.1 323.6 Q250.8 322.7 251.3 321.7 Q251.8 320.7 252.2 319.7 Q252.5 318.6 252.6 317.3 L249.2 317.3 L249.2 316.3 L252.8 316.3 Q252.8 316 252.8 315.7 Q252.8 315.4 252.8 315 Q252.9 314.7 252.9 314.4 Q252.9 314 252.9 313.8 L254 313.8 Q254 314.1 254 314.4 Q254 314.7 253.9 315 Q253.9 315.4 253.9 315.7 Q253.9 316 253.9 316.3 L257.9 316.3 Q257.8 316 257.6 315.8 Q257.4 315.5 257.2 315.2 Q257 315 256.8 314.8 Q256.6 314.5 256.4 314.3 L257.2 313.8 Q257.4 313.9 257.6 314.2 Q257.8 314.4 258.1 314.7 Q258.3 315 258.5 315.2 Q258.7 315.5 258.8 315.7 L258.2 316.3 L261 316.3 L261 317.3 L255.9 317.3 Z M272.2 320.1 Q271.9 320.2 271.6 320.3 Q271.3 320.5 271 320.6 L271 324.6 Q271 325.1 270.9 325.3 Q270.9 325.6 270.7 325.8 Q270.5 325.9 270.3 326 Q270 326.1 269.6 326.1 L268.9 326.2 L268.6 325.2 L269.3 325.1 Q269.5 325.1 269.7 325 Q269.8 325 269.9 324.9 Q270 324.8 270 324.7 Q270 324.5 270 324.3 L270 321 Q269.5 321.2 269.1 321.3 Q268.7 321.5 268.3 321.6 L268 320.6 Q268.4 320.5 268.9 320.3 Q269.5 320.1 270 319.9 L270 317.2 L268.6 317.2 L268.6 316.2 L270 316.2 L270 313.9 L271 313.9 L271 316.2 L272.4 316.2 L272.4 317.2 L271 317.2 L271 319.6 Q271.3 319.5 271.5 319.4 Q271.8 319.3 272 319.2 L272.1 319.7 L272.2 320.1 Z M279.1 317.1 L273.4 317.1 L273.4 314.3 L279.1 314.3 L279.1 317.1 Z M278.2 315.1 L274.3 315.1 L274.3 316.3 L278.2 316.3 L278.2 315.1 Z M275.8 320.6 L272.5 320.6 L272.5 317.9 L275.8 317.9 L275.8 320.6 Z M276.6 317.9 L280 317.9 L280 320.6 L276.6 320.6 L276.6 317.9 Z M274.9 318.7 L273.3 318.7 L273.3 319.8 L274.9 319.8 L274.9 318.7 Z M277.4 319.8 L279.2 319.8 L279.2 318.7 L277.4 318.7 L277.4 319.8 Z M280.6 325.9 Q279.3 325.4 278.4 324.8 Q277.5 324.2 276.7 323.4 L276.7 326.4 L275.7 326.4 L275.7 323.4 Q275 324.2 274 324.8 Q273.1 325.4 271.7 326 L271.2 325.1 Q272.6 324.6 273.6 324 Q274.6 323.4 275.3 322.8 L272 322.8 L272 321.8 L275.7 321.8 L275.7 321 L276.7 321 L276.7 321.8 L280.4 321.8 L280.4 322.8 L277.2 322.8 Q277.9 323.5 278.9 324.1 Q279.9 324.7 281.1 325 L280.6 325.9 Z M296.1 316.9 L296.1 319.1 L299.7 319.1 L299.7 320.1 L296.1 320.1 L296.1 322.4 L299.9 322.4 L299.9 323.4 L296.1 323.4 L296.1 326.4 L295 326.4 L295 316.9 L294.3 316.9 Q294 317.6 293.5 318.4 Q293 319.1 292.3 320 L291.5 319.3 Q292.1 318.5 292.5 317.9 Q293 317.2 293.4 316.5 Q293.8 315.8 294 315.1 Q294.3 314.5 294.6 313.8 L295.6 314.2 Q295.4 314.6 295.2 315 Q295.1 315.4 294.9 315.8 L300.4 315.8 L300.4 316.9 L296.1 316.9 Z M292.3 314.4 Q292 315 291.7 315.7 Q291.4 316.3 291.1 317.1 L291.1 326.4 L290 326.4 L290 319 Q289.4 320 288.6 320.9 L287.8 320.1 Q288.5 319.3 289 318.5 Q289.6 317.7 290 317 Q290.4 316.2 290.7 315.4 Q291 314.7 291.2 314 L292.3 314.4 Z M318.5 321.7 Q317.7 321.8 316.8 321.8 Q315.9 321.8 314.9 321.8 L314.9 324.7 Q314.9 325.1 314.9 325.4 Q314.8 325.7 314.6 325.8 Q314.4 326 314 326.1 Q313.7 326.1 313.1 326.2 L312.3 326.3 L311.9 325.2 L312.9 325.2 Q313.2 325.1 313.4 325.1 Q313.6 325 313.7 325 Q313.8 324.9 313.8 324.8 Q313.9 324.6 313.9 324.4 L313.9 321.9 Q313 321.9 312.1 321.9 Q311.2 322 310.4 322 Q310.2 322 309.8 322.1 Q309.4 322.1 309.1 322.1 L308.9 321.1 Q309.2 321 309.5 321 Q309.8 320.9 310 320.9 Q310.9 320.5 311.9 320 Q312.9 319.5 313.9 318.8 Q313.4 318.9 312.9 318.9 Q312.3 318.9 311.8 318.9 Q311.3 318.9 310.9 318.9 Q310.5 318.9 310.4 319 Q310.2 319 309.9 319 Q309.7 319 309.4 319 L309.2 318.1 Q309.6 318 309.9 318 Q310.1 317.9 310.2 317.8 Q310.9 317.5 311.6 316.9 Q312.3 316.4 313 315.8 Q311.8 315.9 310.8 315.9 Q309.7 316 309 316 L308.8 315 Q309.5 315 310.3 314.9 Q311.2 314.9 312.2 314.8 Q313.1 314.8 314.1 314.7 Q315.1 314.7 316.1 314.6 Q317 314.5 317.9 314.4 Q318.7 314.3 319.4 314.3 L319.5 315.3 Q319 315.3 318.3 315.4 Q317.6 315.5 316.9 315.5 Q316.1 315.6 315.3 315.6 Q314.5 315.7 313.7 315.8 L314 316.1 Q313.4 316.7 312.8 317.2 Q312.2 317.6 311.6 318 Q311.8 318 312.2 318 Q312.7 318 313.2 318 Q313.7 317.9 314.3 317.9 Q314.8 317.9 315.2 317.9 Q315.8 317.4 316.3 317 Q316.9 316.5 317.4 316 L318 316.8 Q317.4 317.4 316.7 318 Q315.9 318.6 315.2 319.1 Q314.4 319.6 313.7 320.1 Q312.9 320.6 312.2 320.9 Q312.8 320.9 313.5 320.9 Q314.1 320.9 314.8 320.8 Q315.5 320.8 316.3 320.8 Q317 320.8 317.6 320.7 Q317.3 320.4 317 320 Q316.6 319.7 316.4 319.5 L317.1 318.9 Q317.4 319.1 317.8 319.5 Q318.2 319.9 318.6 320.3 Q319 320.8 319.4 321.2 Q319.8 321.6 320 321.9 L319.3 322.7 Q319 322.3 318.5 321.7 Z M312.4 323.3 Q312 323.6 311.5 324 Q311 324.3 310.5 324.7 Q310 325 309.4 325.4 Q308.9 325.7 308.4 326 L307.9 325.1 Q308.3 324.8 308.8 324.5 Q309.4 324.2 309.9 323.9 Q310.4 323.5 310.9 323.2 Q311.4 322.8 311.8 322.5 L312.4 323.3 Z M316.5 322.5 Q316.9 322.7 317.4 323 Q317.9 323.3 318.5 323.6 Q319 323.9 319.6 324.3 Q320.1 324.6 320.5 324.9 L320 325.9 Q319.7 325.6 319.2 325.3 Q318.6 324.9 318 324.5 Q317.5 324.2 316.9 323.9 Q316.3 323.5 316 323.3 L316.5 322.5 Z M340.2 323.5 Q340.2 323.9 340.1 324.3 Q340.1 324.8 340 325.2 Q339.9 325.6 339.6 325.8 Q339.3 326 338.5 326.1 Q338.2 326.1 337.8 326.1 Q337.4 326 337.2 326 Q336.9 325.9 336.7 325.8 Q336.6 325.6 336.5 325.3 Q336.4 325.1 336.4 324.6 L336.4 320.2 L334.9 320.3 Q334.9 320.5 334.9 320.8 Q334.9 321 334.9 321.2 Q334.8 322.2 334.7 323 Q334.5 323.7 334.2 324.3 Q333.8 325 333.2 325.5 Q332.7 326 331.7 326.6 L331.1 325.7 Q332 325.2 332.5 324.8 Q333 324.4 333.3 323.9 Q333.6 323.4 333.7 322.7 Q333.9 322 333.9 321.1 Q333.9 321 333.9 320.8 Q333.9 320.6 333.9 320.3 Q333.5 320.4 333.3 320.4 Q333.2 320.4 333.1 320.4 Q333 320.4 332.8 320.4 Q332.7 320.4 332.6 320.5 Q332.4 320.5 332.3 320.5 L332.1 319.6 Q332.3 319.5 332.4 319.5 Q332.6 319.4 332.7 319.2 Q332.9 319 333.1 318.7 Q333.4 318.4 333.7 318 Q334 317.6 334.2 317.2 Q334.5 316.8 334.8 316.4 L332.3 316.4 L332.3 315.4 L335.6 315.4 Q335.5 315 335.3 314.5 Q335.1 314 335 313.8 L336 313.6 Q336.1 313.8 336.1 314 Q336.2 314.2 336.3 314.5 Q336.4 314.7 336.5 315 Q336.6 315.2 336.6 315.4 L339.8 315.4 L339.8 316.4 L335.9 316.4 Q335.7 316.8 335.4 317.2 Q335.1 317.7 334.8 318.1 Q334.5 318.5 334.2 318.8 Q334 319.2 333.8 319.4 Q333.9 319.4 334.4 319.4 Q334.9 319.4 335.6 319.3 Q336.2 319.3 336.8 319.3 Q337.4 319.2 337.9 319.2 Q337.6 318.7 337.3 318.3 Q336.9 317.9 336.7 317.6 L337.5 317.1 Q337.7 317.4 338 317.8 Q338.4 318.2 338.7 318.7 Q339 319.1 339.3 319.6 Q339.6 320 339.8 320.3 L339 321.1 Q338.9 320.9 338.8 320.6 Q338.7 320.4 338.5 320.1 Q338.3 320.1 338 320.1 Q337.7 320.2 337.4 320.2 L337.4 324.4 Q337.4 324.7 337.4 324.8 Q337.4 324.9 337.5 325 Q337.5 325.1 337.7 325.1 Q337.8 325.1 338 325.1 Q338.2 325.2 338.4 325.1 Q338.8 325.1 338.9 325 Q339.1 324.9 339.2 324.5 Q339.3 324.1 339.3 323.8 Q339.3 323.5 339.3 323.1 L340.2 323.5 Z M328.6 318.8 Q328.5 318.8 328.3 318.9 Q328.2 318.9 328 318.9 L327.8 317.9 Q328 317.9 328.1 317.8 Q328.2 317.7 328.3 317.6 Q328.5 317.3 328.7 316.9 Q329 316.5 329.2 315.9 Q329.5 315.4 329.8 314.8 Q330 314.2 330.2 313.7 L331.2 314.1 Q330.9 314.6 330.7 315.1 Q330.4 315.6 330.2 316.2 Q329.9 316.7 329.7 317.1 Q329.4 317.5 329.2 317.8 L330.9 317.7 Q331.1 317.3 331.3 317 Q331.5 316.6 331.6 316.2 L332.5 316.7 Q332.2 317.3 331.9 317.9 Q331.5 318.6 331.2 319.2 Q330.8 319.8 330.5 320.4 Q330.1 320.9 329.9 321.3 L332.2 320.9 L332.2 321.9 Q332.1 322 331.9 322 Q331.7 322 331.4 322.1 Q331.1 322.1 330.7 322.2 Q330.4 322.2 330 322.3 Q329.7 322.3 329.5 322.4 Q329.2 322.4 329.1 322.4 Q329 322.4 328.7 322.5 Q328.5 322.5 328.3 322.6 L328.1 321.6 Q328.3 321.5 328.4 321.4 Q328.7 321.3 328.8 321.1 Q329.1 320.7 329.5 320.1 Q329.9 319.4 330.3 318.7 Q330.1 318.7 329.8 318.8 Q329.5 318.8 329.3 318.8 Q329.1 318.8 328.9 318.8 Q328.7 318.8 328.6 318.8 Z M332.5 324.4 Q332 324.5 331.4 324.7 Q330.8 324.8 330.1 324.9 Q329.4 325 328.8 325.2 Q328.1 325.3 327.7 325.3 L327.5 324.4 Q328 324.3 328.6 324.2 Q329.3 324 329.9 323.9 Q330.6 323.8 331.3 323.6 Q331.9 323.5 332.3 323.4 L332.4 324 L332.5 324.4 Z" style="" fill="#0b0560" transform="matrix(1,0,0,1,0,0)"/></g></g>
            </g>
            <g class="border">
            </g>
          </g>
          <defs id="defs">
            <mask xmlns="http://www.w3.org/2000/svg" id="mask">
                <rect id="showAll" fill="white" x="215" y="79" width="168" height="160"/>
                <rect id="hideNameBg" fill="black" x="0" y="0" width="0" height="0" stroke-width="2" stroke="black"/>
                <rect id="hideSloganBg" fill="black" x="0" y="0" width="0" height="0" stroke-width="2" stroke="black"/>
            </mask>
          
          </defs>
        </g>
        </svg>